[h264 @ 0x55cbb62b6d40] Reinit context to 640x352, pix_fmt: yuv420p
Input #0, mov,mp4,m4a,3gp,3g2,mj2, from '/var/www/html/project/media/video/original/WhatsApp_Video_2022-11-24_at_09.47.47.mp4':
  Metadata:
    major_brand     : mp42
    minor_version   : 0
    compatible_brands: mp42isom
  Duration: 00:00:30.34, start: 0.000000, bitrate: 2230 kb/s
    Stream #0:0(und): Video: h264 (High), 1 reference frame (avc1 / 0x31637661), yuv420p(tv, bt470bg/bt470bg/smpte170m, left), 640x352, 1908 kb/s, 30 fps, 30 tbr, 1000k tbn, 2000k tbc (default)
    Stream #0:1(und): Audio: aac (LC) (mp4a / 0x6134706D), 44100 Hz, stereo, fltp, 317 kb/s (default)
[h264 @ 0x55cbb62f0780] Reinit context to 1280x720, pix_fmt: yuv420p
Input #1, mov,mp4,m4a,3gp,3g2,mj2, from '/var/www/html/project/static/images/templates/Codino.mp4':
  Metadata:
    major_brand     : mp42
    minor_version   : 1
    compatible_brands: isommp41mp42
    creation_time   : 2021-07-11T07:02:58.000000Z
  Duration: 00:00:02.00, start: 0.000000, bitrate: 1007 kb/s
    Stream #1:0(ita): Audio: aac (LC) (mp4a / 0x6134706D), 44100 Hz, stereo, fltp, 102 kb/s (default)
    Metadata:
      creation_time   : 2021-07-11T07:02:58.000000Z
      handler_name    : Core Media Audio
    Stream #1:1(und): Video: h264 (High), 1 reference frame (avc1 / 0x31637661), yuv420p(tv, bt709, progressive, left), 1280x720 [SAR 1:1 DAR 16:9], 813 kb/s, 25 fps, 25 tbr, 25k tbn, 50k tbc (default)
    Metadata:
      creation_time   : 2021-07-11T07:02:58.000000Z
      handler_name    : Core Media Video
[Parsed_scale_0 @ 0x55cbb6356000] w:1280 h:720 flags:'bilinear' interl:0
[Parsed_scale_2 @ 0x55cbb6325f00] w:1280 h:720 flags:'bilinear' interl:0
Stream mapping:
  Stream #0:0 (h264) -> scale
  Stream #0:1 (aac) -> concat:in0:a0
  Stream #1:0 (aac) -> concat:in1:a0
  Stream #1:1 (h264) -> scale
  concat:out:v0 -> Stream #0:0 (libx264)
  concat:out:a0 -> Stream #0:1 (aac)
Press [q] to stop, [?] for help
[h264 @ 0x55cbb62f1980] Reinit context to 640x352, pix_fmt: yuv420p
[h264 @ 0x55cbb6721540] Reinit context to 1280x720, pix_fmt: yuv420p
[Parsed_scale_0 @ 0x55cbb7134f80] w:1280 h:720 flags:'bilinear' interl:0
[Parsed_scale_2 @ 0x55cbb713d480] w:1280 h:720 flags:'bilinear' interl:0
[graph 0 input from stream 0:0 @ 0x55cbb71404c0] w:640 h:352 pixfmt:yuv420p tb:1/1000000 fr:1000000/33333 sar:0/1 sws_param:flags=2
[graph 0 input from stream 1:1 @ 0x55cbb7141580] w:1280 h:720 pixfmt:yuv420p tb:1/25000 fr:25/1 sar:1/1 sws_param:flags=2
[graph_0_in_0_1 @ 0x55cbb7142500] tb:1/44100 samplefmt:fltp samplerate:44100 chlayout:0x3
[graph_0_in_1_0 @ 0x55cbb7143640] tb:1/44100 samplefmt:fltp samplerate:44100 chlayout:0x3
[Parsed_scale_0 @ 0x55cbb7134f80] w:640 h:352 fmt:yuv420p sar:0/1 -> w:1280 h:720 fmt:yuv420p sar:0/1 flags:0x2
[Parsed_setsar_1 @ 0x55cbb713d0c0] w:1280 h:720 sar:0/1 dar:16/9 -> sar:1/1 dar:16/9
[Parsed_scale_2 @ 0x55cbb713d480] w:1280 h:720 fmt:yuv420p sar:1/1 -> w:1280 h:720 fmt:yuv420p sar:1/1 flags:0x2
[Parsed_setsar_3 @ 0x55cbb713d880] w:1280 h:720 sar:1/1 dar:16/9 -> sar:1/1 dar:16/9
[libx264 @ 0x55cbb6385f80] using SAR=1/1
[libx264 @ 0x55cbb6385f80] using cpu capabilities: MMX2 SSE2Fast SSSE3 SSE4.2 AVX FMA3 BMI2 AVX2
[libx264 @ 0x55cbb6385f80] profile High, level 3.2
[libx264 @ 0x55cbb6385f80] 264 - core 155 r2917 0a84d98 - H.264/MPEG-4 AVC codec - Copyleft 2003-2018 - http://www.videolan.org/x264.html - options: cabac=1 ref=1 deblock=1:0:0 analyse=0x3:0x113 me=hex subme=2 psy=1 psy_rd=1.00:0.00 mixed_ref=0 me_range=16 chroma_me=1 trellis=0 8x8dct=1 cqm=0 deadzone=21,11 fast_pskip=1 chroma_qp_offset=0 threads=22 lookahead_threads=5 sliced_threads=0 nr=0 decimate=1 interlaced=0 bluray_compat=0 constrained_intra=0 bframes=3 b_pyramid=2 b_adapt=1 b_bias=0 direct=1 weightb=1 open_gop=0 weightp=1 keyint=250 keyint_min=25 scenecut=40 intra_refresh=0 rc_lookahead=10 rc=crf mbtree=1 crf=18.0 qcomp=0.60 qpmin=0 qpmax=69 qpstep=4 ip_ratio=1.40 aq=1:1.00
Output #0, mp4, to '/var/www/html/project/media/video/watermarks/WhatsApp_Video_2022-11-24_at_09.47.47.mp4':
  Metadata:
    major_brand     : mp42
    minor_version   : 0
    compatible_brands: mp42isom
    encoder         : Lavf58.29.100
    Stream #0:0: Video: h264 (libx264), 1 reference frame (avc1 / 0x31637661), yuv420p(progressive), 1280x720 [SAR 1:1 DAR 16:9], q=-1--1, 30 fps, 1000k tbn, 30 tbc (default)
    Metadata:
      encoder         : Lavc58.54.100 libx264
    Side data:
      cpb: bitrate max/min/avg: 0/0/0 buffer size: 0 vbv_delay: -1
    Stream #0:1: Audio: aac (LC) (mp4a / 0x6134706D), 44100 Hz, stereo, fltp, delay 1024, 128 kb/s (default)
    Metadata:
      encoder         : Lavc58.54.100 aac
[Parsed_concat_4 @ 0x55cbb713e540] EOF on in0:v0, 1 streams left in segment.
[Parsed_concat_4 @ 0x55cbb713e540] EOF on in0:a0, 0 streams left in segment.
[Parsed_concat_4 @ 0x55cbb713e540] Segment finished at pts=30350590
[Parsed_concat_4 @ 0x55cbb713e540] EOF on in1:a0, 1 streams left in segment.
[Parsed_concat_4 @ 0x55cbb713e540] EOF on in1:v0, 0 streams left in segment.
[Parsed_concat_4 @ 0x55cbb713e540] Segment finished at pts=32369275
No more output streams to write to, finishing.
frame=  960 fps=224 q=-1.0 Lsize=   15083kB time=00:00:32.37 bitrate=3817.1kbits/s speed=7.55x    
[AVIOContext @ 0x55cbb62b5180] Statistics: 0 seeks, 9 writeouts
video:14519kB audio:529kB subtitle:0kB other streams:0kB global headers:0kB muxing overhead: 0.231227%
Input file #0 (/var/www/html/project/media/video/original/WhatsApp_Video_2022-11-24_at_09.47.47.mp4):
  Input stream #0:0 (video): 910 packets read (7238160 bytes); 910 frames decoded; 
  Input stream #0:1 (audio): 1308 packets read (1205597 bytes); 1308 frames decoded (1339392 samples); 
  Total: 2218 packets (8443757 bytes) demuxed
Input file #1 (/var/www/html/project/static/images/templates/Codino.mp4):
  Input stream #1:0 (audio): 89 packets read (26579 bytes); 87 frames decoded (89024 samples); 
  Input stream #1:1 (video): 50 packets read (203365 bytes); 50 frames decoded; 
  Total: 139 packets (229944 bytes) demuxed
Output file #0 (/var/www/html/project/media/video/watermarks/WhatsApp_Video_2022-11-24_at_09.47.47.mp4):
  Output stream #0:0 (video): 960 frames encoded; 960 packets muxed (14867454 bytes); 
  Output stream #0:1 (audio): 1395 frames encoded (1428416 samples); 1396 packets muxed (542074 bytes); 
  Total: 2356 packets (15409528 bytes) muxed
[AVIOContext @ 0x55cbb6384dc0] Statistics: 2 seeks, 62 writeouts
[libx264 @ 0x55cbb6385f80] frame I:10    Avg QP:14.71  size: 76956
[libx264 @ 0x55cbb6385f80] frame P:348   Avg QP:18.43  size: 27409
[libx264 @ 0x55cbb6385f80] frame B:602   Avg QP:21.27  size:  7573
[libx264 @ 0x55cbb6385f80] consecutive B-frames: 12.9%  7.7%  8.1% 71.2%
[libx264 @ 0x55cbb6385f80] mb I  I16..4: 19.8% 25.8% 54.4%
[libx264 @ 0x55cbb6385f80] mb P  I16..4:  5.6% 15.0%  2.4%  P16..4: 33.5% 15.8%  9.7%  0.0%  0.0%    skip:18.0%
[libx264 @ 0x55cbb6385f80] mb B  I16..4:  1.9%  2.8%  0.1%  B16..8: 22.3%  6.4%  0.6%  direct:17.3%  skip:48.6%  L0:37.5% L1:43.6% BI:18.9%
[libx264 @ 0x55cbb6385f80] 8x8 transform intra:59.9% inter:50.0%
[libx264 @ 0x55cbb6385f80] coded y,uvDC,uvAC intra: 56.9% 57.6% 11.6% inter: 21.2% 19.1% 0.5%
[libx264 @ 0x55cbb6385f80] i16 v,h,dc,p: 46% 25% 20%  9%
[libx264 @ 0x55cbb6385f80] i8 v,h,dc,ddl,ddr,vr,hd,vl,hu: 24% 32% 19%  3%  4%  4%  7%  3%  5%
[libx264 @ 0x55cbb6385f80] i4 v,h,dc,ddl,ddr,vr,hd,vl,hu: 26% 26% 12%  4%  7%  6%  8%  4%  6%
[libx264 @ 0x55cbb6385f80] i8c dc,h,v,p: 45% 24% 25%  6%
[libx264 @ 0x55cbb6385f80] Weighted P-Frames: Y:5.5% UV:0.0%
[libx264 @ 0x55cbb6385f80] kb/s:3678.41
[aac @ 0x55cbb62f2400] Qavg: 2238.861
[AVIOContext @ 0x55cbb62be080] Statistics: 15112509 bytes read, 219 seeks
[AVIOContext @ 0x55cbb62b9580] Statistics: 1530915 bytes read, 42 seeks
